G75*
%MOIN*%
%OFA0B0*%
%FSLAX25Y25*%
%IPPOS*%
%LPD*%
%AMOC8*
5,1,8,0,0,1.08239X$1,22.5*
%
%ADD10C,0.08200*%
%ADD11R,0.11430X0.11430*%
%ADD12R,0.03359X0.01981*%
%ADD13C,0.03162*%
D10*
X0011039Y0011118D03*
X0011039Y0021118D03*
X0011039Y0031118D03*
X0011039Y0041118D03*
X0011039Y0051118D03*
X0011039Y0061118D03*
X0011039Y0071118D03*
X0011039Y0081118D03*
X0011039Y0091118D03*
X0011039Y0101118D03*
X0036039Y0035055D03*
X0061039Y0031118D03*
X0061039Y0021118D03*
X0061039Y0011118D03*
X0061039Y0041118D03*
X0061039Y0051118D03*
X0061039Y0061118D03*
X0061039Y0071118D03*
X0061039Y0081118D03*
X0061039Y0091118D03*
X0061039Y0101118D03*
D11*
G36*
X0036039Y0064082D02*
X0044121Y0056000D01*
X0036039Y0047918D01*
X0027957Y0056000D01*
X0036039Y0064082D01*
G37*
D12*
G36*
X0040432Y0064560D02*
X0038058Y0062186D01*
X0036658Y0063586D01*
X0039032Y0065960D01*
X0040432Y0064560D01*
G37*
G36*
X0041824Y0063168D02*
X0039450Y0060794D01*
X0038050Y0062194D01*
X0040424Y0064568D01*
X0041824Y0063168D01*
G37*
G36*
X0043216Y0061776D02*
X0040842Y0059402D01*
X0039442Y0060802D01*
X0041816Y0063176D01*
X0043216Y0061776D01*
G37*
G36*
X0040834Y0059410D02*
X0043208Y0061784D01*
X0044608Y0060384D01*
X0042234Y0058010D01*
X0040834Y0059410D01*
G37*
G36*
X0046000Y0058992D02*
X0043626Y0056618D01*
X0042226Y0058018D01*
X0044600Y0060392D01*
X0046000Y0058992D01*
G37*
G36*
X0044600Y0051608D02*
X0042226Y0053982D01*
X0043626Y0055382D01*
X0046000Y0053008D01*
X0044600Y0051608D01*
G37*
G36*
X0043208Y0050216D02*
X0040834Y0052590D01*
X0042234Y0053990D01*
X0044608Y0051616D01*
X0043208Y0050216D01*
G37*
G36*
X0041816Y0048824D02*
X0039442Y0051198D01*
X0040842Y0052598D01*
X0043216Y0050224D01*
X0041816Y0048824D01*
G37*
G36*
X0039450Y0051206D02*
X0041824Y0048832D01*
X0040424Y0047432D01*
X0038050Y0049806D01*
X0039450Y0051206D01*
G37*
G36*
X0038058Y0049814D02*
X0040432Y0047440D01*
X0039032Y0046040D01*
X0036658Y0048414D01*
X0038058Y0049814D01*
G37*
G36*
X0035421Y0048414D02*
X0033047Y0046040D01*
X0031647Y0047440D01*
X0034021Y0049814D01*
X0035421Y0048414D01*
G37*
G36*
X0034029Y0049806D02*
X0031655Y0047432D01*
X0030255Y0048832D01*
X0032629Y0051206D01*
X0034029Y0049806D01*
G37*
G36*
X0028863Y0050224D02*
X0031237Y0052598D01*
X0032637Y0051198D01*
X0030263Y0048824D01*
X0028863Y0050224D01*
G37*
G36*
X0027471Y0051616D02*
X0029845Y0053990D01*
X0031245Y0052590D01*
X0028871Y0050216D01*
X0027471Y0051616D01*
G37*
G36*
X0026079Y0053008D02*
X0028453Y0055382D01*
X0029853Y0053982D01*
X0027479Y0051608D01*
X0026079Y0053008D01*
G37*
G36*
X0027479Y0060392D02*
X0029853Y0058018D01*
X0028453Y0056618D01*
X0026079Y0058992D01*
X0027479Y0060392D01*
G37*
G36*
X0029845Y0058010D02*
X0027471Y0060384D01*
X0028871Y0061784D01*
X0031245Y0059410D01*
X0029845Y0058010D01*
G37*
G36*
X0031237Y0059402D02*
X0028863Y0061776D01*
X0030263Y0063176D01*
X0032637Y0060802D01*
X0031237Y0059402D01*
G37*
G36*
X0032629Y0060794D02*
X0030255Y0063168D01*
X0031655Y0064568D01*
X0034029Y0062194D01*
X0032629Y0060794D01*
G37*
G36*
X0034021Y0062186D02*
X0031647Y0064560D01*
X0033047Y0065960D01*
X0035421Y0063586D01*
X0034021Y0062186D01*
G37*
D13*
X0036039Y0061011D03*
X0041050Y0056000D03*
X0036039Y0050989D03*
X0031028Y0056000D03*
M02*
